PathFileType	4	(X/Y/Z)	OpenSim_Sub07_CSBaseline_Accel.trc
DataRate	CameraRate	NumFrames	NumMarkers	Units	OrigDataRate	OrigDataStartFrame	OrigNumFrames
100	100	21	8	m	100	1	7788
Frame#	Time	torso_imu_offset_imu	pelvis_imu_offset_imu	tibia_r_imu_offset_imu	femur_r_imu_offset_imu	tibia_l_imu_offset_imu	femur_l_imu_offset_imu	toes_r_imu_offset_imu	toes_l_imu_offset_imu
				X1	Y1	Z1	X2	Y2	Z2	X3	Y3	Z3	X4	Y4	Z4	X5	Y5	Z5	X6	Y6	Z6	X7	Y7	Z7	X8		Y8	Z8	

1	0	-8.55054180	0.73084661	7.46544264	9.73029987	0.56450189	2.14912927	9.77021823	1.52881375	0.06179258	9.77056430	0.07508079	1.05201670	9.76881716	-0.70929083	0.68824729	9.41050998	2.14748506	-1.61924324	5.03946212	1.11486125	8.54421822	5.23810796	1.42457441	10.93577592
2	0.01000000	-8.55143460	0.76926647	7.48298195	9.71728721	0.56941344	2.16314718	9.76218944	1.57035478	0.02025764	9.77278831	0.04725021	1.03662840	9.78596751	-0.75096075	0.65610233	9.43707154	2.17110075	-1.58341435	5.06011336	1.13842090	8.59369622	5.24029989	1.44237874	10.93127803
3	0.02000000	-8.54811841	0.76554510	7.42076721	9.69398034	0.60054847	2.19569158	9.70852496	1.57607679	0.03412267	9.74076738	0.03798075	1.03093496	9.77823973	-0.77248241	0.62588855	9.41128668	2.14952857	-1.58219768	5.05270621	1.13676751	8.54572074	5.23309397	1.41237375	10.93954716
4	0.03000000	-8.55319152	0.74721139	7.45417548	9.69802729	0.61478163	2.20799663	9.66826166	1.57288926	0.06445117	9.74258225	0.00623238	1.03120998	9.78172281	-0.77440485	0.61354531	9.41888634	2.18487838	-1.56799677	5.01763815	1.11403413	8.55836804	5.25539817	1.43419757	10.93707701
5	0.04000000	-8.56798932	0.73724607	7.44949391	9.68811833	0.59931615	2.18987157	9.69663587	1.53752312	0.09829044	9.72126071	0.05163388	1.07171133	9.77648690	-0.72721830	0.65041010	9.42238057	2.17154374	-1.63408016	5.03214604	1.13865700	8.55412110	5.23580624	1.44792223	10.94242772
6	0.05000000	-8.54180002	0.71216202	7.43947603	9.67087184	0.59655171	2.15389864	9.73259279	1.46670496	0.08496336	9.72660252	0.10558622	1.07508730	9.77170674	-0.70488664	0.67064497	9.37026639	2.12771927	-1.56347492	5.03237877	1.13377472	8.57361886	5.21149224	1.43674466	10.92911051
7	0.06000000	-8.51207726	0.69488242	7.38684309	9.68501732	0.64671216	2.17108028	9.76015685	1.44779682	0.06435186	9.77818722	0.10146159	1.11989584	9.77914512	-0.69232305	0.66828620	9.39233650	2.17437458	-1.56560254	5.04939065	1.15453055	8.54912674	5.25866899	1.44829240	10.94479742
8	0.07000000	-8.52352083	0.70144937	7.45668544	9.67986395	0.64395687	2.15990327	9.73839387	1.47815878	0.02129013	9.76614981	0.11828775	1.09283741	9.73676581	-0.71502137	0.67551765	9.42820169	2.17503555	-1.63354997	5.06727653	1.11097260	8.54177980	5.25452808	1.42278944	10.93128545
9	0.08000000	-8.50951485	0.70467867	7.58575015	9.67673345	0.65653489	2.15361365	9.69999990	1.47759677	0.03976397	9.76915021	0.10182230	1.07670839	9.77027418	-0.74820339	0.69021276	9.41243241	2.21008808	-1.61854961	5.04249066	1.10975341	8.58574036	5.22844420	1.42387762	10.97016610
10	0.09000000	-8.49337901	0.68834264	7.57320492	9.68490519	0.63266228	2.16198062	9.70891305	1.48538204	0.02972473	9.75183172	0.10880443	1.05502253	9.77895699	-0.75262535	0.69788593	9.38390219	2.20234596	-1.56769343	5.03150978	1.12517559	8.56543359	5.24637448	1.41235715	10.91434750
11	0.10000000	-8.50577872	0.67766025	7.51449254	9.68157590	0.63320311	2.15747386	9.71923331	1.47113566	0.04699060	9.72147038	0.12965415	0.99391844	9.75459413	-0.69848780	0.71579862	9.42103405	2.21944319	-1.59653343	5.04701462	1.12515772	8.57116312	5.22267832	1.39434575	10.89575680
12	0.11000000	-8.52644941	0.70893344	7.53537005	9.68812662	0.66500094	2.18288548	9.76546655	1.46952872	0.03505159	9.73902299	0.11616842	1.02234803	9.75071039	-0.62649955	0.70704422	9.36636494	2.30722672	-1.57142414	5.03780978	1.14294704	8.57550008	5.17616296	1.44441766	10.94831480
13	0.12000000	-8.54337090	0.70101684	7.53760994	9.69788396	0.67743333	2.18840666	9.72209952	1.46056373	0.03125737	9.75861022	0.07650367	1.02905960	9.79956546	-0.56046787	0.69131184	9.41650783	2.22705636	-1.50267216	5.04188433	1.14041947	8.54385324	5.23136332	1.45370976	10.92033141
14	0.13000000	-8.52972994	0.66731298	7.55387353	9.67541591	0.69745380	2.21502231	9.73091163	1.43710801	0.07944802	9.78023805	0.06809317	0.98975265	9.82712034	-0.58832932	0.63471907	9.41072748	2.22746250	-1.57454445	5.06476417	1.13759524	8.55607582	5.22784584	1.42890313	10.92399595
15	0.14000000	-8.50956712	0.66244729	7.57198032	9.71809824	0.69348456	2.19054010	9.71514625	1.36711718	0.08558602	9.72855589	0.05376031	0.97913530	9.79104492	-0.58390670	0.65904713	9.38953647	2.23195462	-1.61432819	5.07074010	1.10775094	8.54159763	5.21008963	1.46404038	10.96757792
16	0.15000000	-8.48660872	0.65992111	7.62758290	9.69584764	0.67133558	2.20138856	9.69535968	1.27340200	0.07587237	9.70454515	0.02811256	1.03326440	9.78124767	-0.61931533	0.67310032	9.40406898	2.23190030	-1.59460460	5.03354688	1.12820694	8.55763696	5.25491896	1.40928397	10.91803527
17	0.16000000	-8.46912481	0.66926726	7.50482009	9.62677590	0.58193517	2.21355652	9.68061631	1.28039689	0.08616847	9.65344466	-0.00845919	1.01639019	9.78807264	-0.67407825	0.73082763	9.41192048	2.22096763	-1.61022936	5.03422493	1.11837139	8.59753991	5.22908900	1.40719109	10.91493232
18	0.17000000	-8.43685651	0.64066615	7.49041031	9.68335694	0.61326380	2.18911184	9.80059706	1.28912947	0.12890218	9.69687451	0.03656729	0.98896677	9.76727587	-0.67381210	0.71585978	9.37782375	2.20585663	-1.64381951	5.00296684	1.15280817	8.59086882	5.20737655	1.43403603	10.91806073
19	0.18000000	-8.48143866	0.69125180	7.51915879	9.67396123	0.68023937	2.19637179	9.77226697	1.30794768	0.14364754	9.72280809	0.03786191	0.93845937	9.75922163	-0.65309107	0.68681540	9.36864443	2.18927697	-1.56366646	4.99556337	1.10514681	8.57602184	5.23634065	1.42411680	10.91473002
20	0.19000000	-8.50110736	0.69670343	7.50811145	9.68377196	0.67847897	2.20394920	9.76396637	1.37113842	0.13181369	9.75813157	0.06569195	0.96770768	9.75952408	-0.67584738	0.63747772	9.38472428	2.14843006	-1.56434665	4.97487848	1.11705715	8.60160231	5.22406373	1.45169441	10.93681846
21	0.20000000	-8.50605280	0.68744366	7.54695608	9.70273266	0.64843835	2.15784990	9.77562404	1.42968109	0.01181750	9.78883766	0.05648619	1.07525354	9.81672533	-0.71014128	0.62296627	9.45649966	2.14097462	-1.55003396	4.98635710	1.11672852	8.57393160	5.20956270	1.43386896	10.94569240
